<mxfile host="app.diagrams.net" modified="2024-06-24T05:50:40.072Z" agent="Mozilla/5.0 (Windows NT 10.0; Win64; x64) AppleWebKit/537.36 (KHTML, like Gecko) Chrome/126.0.0.0 Safari/537.36" etag="ctl-ABJVuA8hpH5znMDc" version="24.6.2" type="device">
  <diagram id="R2lEEEUBdFMjLlhIrx00" name="Page-1">
    <mxGraphModel dx="2163" dy="663" grid="1" gridSize="10" guides="1" tooltips="1" connect="1" arrows="1" fold="1" page="1" pageScale="1" pageWidth="850" pageHeight="1100" math="0" shadow="0" extFonts="Permanent Marker^https://fonts.googleapis.com/css?family=Permanent+Marker">
      <root>
        <mxCell id="0" />
        <mxCell id="1" parent="0" />
        <mxCell id="wXqkYa9CVzPAk8inAlXh-1" value="ROLE" style="whiteSpace=wrap;html=1;align=center;" vertex="1" parent="1">
          <mxGeometry x="40" y="80" width="100" height="40" as="geometry" />
        </mxCell>
        <mxCell id="wXqkYa9CVzPAk8inAlXh-2" value="ACCOUNT" style="whiteSpace=wrap;html=1;align=center;" vertex="1" parent="1">
          <mxGeometry x="320" y="80" width="100" height="40" as="geometry" />
        </mxCell>
        <mxCell id="wXqkYa9CVzPAk8inAlXh-3" value="USER" style="whiteSpace=wrap;html=1;align=center;" vertex="1" parent="1">
          <mxGeometry x="630" y="80" width="100" height="40" as="geometry" />
        </mxCell>
        <mxCell id="wXqkYa9CVzPAk8inAlXh-24" style="edgeStyle=orthogonalEdgeStyle;rounded=0;orthogonalLoop=1;jettySize=auto;html=1;entryX=0;entryY=0.5;entryDx=0;entryDy=0;endArrow=none;endFill=0;startArrow=ERmandOne;startFill=0;" edge="1" parent="1" source="wXqkYa9CVzPAk8inAlXh-4" target="wXqkYa9CVzPAk8inAlXh-14">
          <mxGeometry relative="1" as="geometry" />
        </mxCell>
        <mxCell id="wXqkYa9CVzPAk8inAlXh-4" value="THEATER" style="whiteSpace=wrap;html=1;align=center;" vertex="1" parent="1">
          <mxGeometry x="40" y="200" width="100" height="40" as="geometry" />
        </mxCell>
        <mxCell id="wXqkYa9CVzPAk8inAlXh-26" style="edgeStyle=orthogonalEdgeStyle;rounded=0;orthogonalLoop=1;jettySize=auto;html=1;entryX=0;entryY=0.5;entryDx=0;entryDy=0;endArrow=none;endFill=0;startArrow=ERmandOne;startFill=0;" edge="1" parent="1" source="wXqkYa9CVzPAk8inAlXh-5" target="wXqkYa9CVzPAk8inAlXh-15">
          <mxGeometry relative="1" as="geometry" />
        </mxCell>
        <mxCell id="wXqkYa9CVzPAk8inAlXh-5" value="ROOM" style="whiteSpace=wrap;html=1;align=center;" vertex="1" parent="1">
          <mxGeometry x="330" y="200" width="100" height="40" as="geometry" />
        </mxCell>
        <mxCell id="wXqkYa9CVzPAk8inAlXh-30" style="edgeStyle=orthogonalEdgeStyle;rounded=0;orthogonalLoop=1;jettySize=auto;html=1;entryX=0;entryY=0.5;entryDx=0;entryDy=0;endArrow=none;endFill=0;startArrow=ERmandOne;startFill=0;" edge="1" parent="1" source="wXqkYa9CVzPAk8inAlXh-6" target="wXqkYa9CVzPAk8inAlXh-17">
          <mxGeometry relative="1" as="geometry" />
        </mxCell>
        <mxCell id="wXqkYa9CVzPAk8inAlXh-6" value="MOVIE" style="whiteSpace=wrap;html=1;align=center;" vertex="1" parent="1">
          <mxGeometry x="320" y="320" width="100" height="40" as="geometry" />
        </mxCell>
        <mxCell id="wXqkYa9CVzPAk8inAlXh-7" value="TYPEMOVIE" style="whiteSpace=wrap;html=1;align=center;" vertex="1" parent="1">
          <mxGeometry x="-50" y="320" width="100" height="40" as="geometry" />
        </mxCell>
        <mxCell id="wXqkYa9CVzPAk8inAlXh-8" value="CHAIR" style="whiteSpace=wrap;html=1;align=center;" vertex="1" parent="1">
          <mxGeometry x="630" y="200" width="100" height="40" as="geometry" />
        </mxCell>
        <mxCell id="wXqkYa9CVzPAk8inAlXh-9" value="TICKET" style="whiteSpace=wrap;html=1;align=center;" vertex="1" parent="1">
          <mxGeometry x="640" y="320" width="100" height="40" as="geometry" />
        </mxCell>
        <mxCell id="wXqkYa9CVzPAk8inAlXh-10" value="DETAILTYPE" style="shape=associativeEntity;whiteSpace=wrap;html=1;align=center;" vertex="1" parent="1">
          <mxGeometry x="120" y="310" width="140" height="60" as="geometry" />
        </mxCell>
        <mxCell id="wXqkYa9CVzPAk8inAlXh-35" style="edgeStyle=orthogonalEdgeStyle;rounded=0;orthogonalLoop=1;jettySize=auto;html=1;entryX=1;entryY=0.5;entryDx=0;entryDy=0;endArrow=ERoneToMany;endFill=0;" edge="1" parent="1" source="wXqkYa9CVzPAk8inAlXh-11" target="wXqkYa9CVzPAk8inAlXh-9">
          <mxGeometry relative="1" as="geometry">
            <Array as="points">
              <mxPoint x="880" y="340" />
            </Array>
          </mxGeometry>
        </mxCell>
        <mxCell id="wXqkYa9CVzPAk8inAlXh-36" style="edgeStyle=orthogonalEdgeStyle;rounded=0;orthogonalLoop=1;jettySize=auto;html=1;endArrow=ERoneToMany;endFill=0;" edge="1" parent="1" source="wXqkYa9CVzPAk8inAlXh-11" target="wXqkYa9CVzPAk8inAlXh-8">
          <mxGeometry relative="1" as="geometry">
            <Array as="points">
              <mxPoint x="880" y="220" />
            </Array>
          </mxGeometry>
        </mxCell>
        <mxCell id="wXqkYa9CVzPAk8inAlXh-11" value="DETAILTICKET" style="shape=associativeEntity;whiteSpace=wrap;html=1;align=center;" vertex="1" parent="1">
          <mxGeometry x="810" y="240" width="140" height="60" as="geometry" />
        </mxCell>
        <mxCell id="wXqkYa9CVzPAk8inAlXh-12" value="Thuộc" style="shape=rhombus;perimeter=rhombusPerimeter;whiteSpace=wrap;html=1;align=center;" vertex="1" parent="1">
          <mxGeometry x="170" y="70" width="120" height="60" as="geometry" />
        </mxCell>
        <mxCell id="wXqkYa9CVzPAk8inAlXh-23" style="edgeStyle=orthogonalEdgeStyle;rounded=0;orthogonalLoop=1;jettySize=auto;html=1;entryX=1;entryY=0.5;entryDx=0;entryDy=0;startArrow=none;startFill=0;endArrow=ERoneToMany;endFill=0;" edge="1" parent="1" source="wXqkYa9CVzPAk8inAlXh-13" target="wXqkYa9CVzPAk8inAlXh-2">
          <mxGeometry relative="1" as="geometry" />
        </mxCell>
        <mxCell id="wXqkYa9CVzPAk8inAlXh-13" value="Thuộc" style="shape=rhombus;perimeter=rhombusPerimeter;whiteSpace=wrap;html=1;align=center;" vertex="1" parent="1">
          <mxGeometry x="470" y="70" width="120" height="60" as="geometry" />
        </mxCell>
        <mxCell id="wXqkYa9CVzPAk8inAlXh-25" style="edgeStyle=orthogonalEdgeStyle;rounded=0;orthogonalLoop=1;jettySize=auto;html=1;entryX=0;entryY=0.5;entryDx=0;entryDy=0;endArrow=ERoneToMany;endFill=0;" edge="1" parent="1" source="wXqkYa9CVzPAk8inAlXh-14" target="wXqkYa9CVzPAk8inAlXh-5">
          <mxGeometry relative="1" as="geometry" />
        </mxCell>
        <mxCell id="wXqkYa9CVzPAk8inAlXh-14" value="Chứa" style="shape=rhombus;perimeter=rhombusPerimeter;whiteSpace=wrap;html=1;align=center;" vertex="1" parent="1">
          <mxGeometry x="170" y="190" width="120" height="60" as="geometry" />
        </mxCell>
        <mxCell id="wXqkYa9CVzPAk8inAlXh-27" style="edgeStyle=orthogonalEdgeStyle;rounded=0;orthogonalLoop=1;jettySize=auto;html=1;entryX=0;entryY=0.5;entryDx=0;entryDy=0;endArrow=ERoneToMany;endFill=0;" edge="1" parent="1" source="wXqkYa9CVzPAk8inAlXh-15" target="wXqkYa9CVzPAk8inAlXh-8">
          <mxGeometry relative="1" as="geometry" />
        </mxCell>
        <mxCell id="wXqkYa9CVzPAk8inAlXh-15" value="Thuộc" style="shape=rhombus;perimeter=rhombusPerimeter;whiteSpace=wrap;html=1;align=center;" vertex="1" parent="1">
          <mxGeometry x="470" y="190" width="120" height="60" as="geometry" />
        </mxCell>
        <mxCell id="wXqkYa9CVzPAk8inAlXh-29" style="edgeStyle=orthogonalEdgeStyle;rounded=0;orthogonalLoop=1;jettySize=auto;html=1;entryX=0;entryY=0.5;entryDx=0;entryDy=0;endArrow=ERoneToMany;endFill=0;exitX=1;exitY=0.5;exitDx=0;exitDy=0;" edge="1" parent="1" source="wXqkYa9CVzPAk8inAlXh-10" target="wXqkYa9CVzPAk8inAlXh-6">
          <mxGeometry relative="1" as="geometry">
            <mxPoint x="290" y="340" as="sourcePoint" />
          </mxGeometry>
        </mxCell>
        <mxCell id="wXqkYa9CVzPAk8inAlXh-31" style="edgeStyle=orthogonalEdgeStyle;rounded=0;orthogonalLoop=1;jettySize=auto;html=1;entryX=0;entryY=0.5;entryDx=0;entryDy=0;endArrow=ERoneToMany;endFill=0;" edge="1" parent="1" source="wXqkYa9CVzPAk8inAlXh-17" target="wXqkYa9CVzPAk8inAlXh-9">
          <mxGeometry relative="1" as="geometry" />
        </mxCell>
        <mxCell id="wXqkYa9CVzPAk8inAlXh-17" value="Có" style="shape=rhombus;perimeter=rhombusPerimeter;whiteSpace=wrap;html=1;align=center;" vertex="1" parent="1">
          <mxGeometry x="470" y="310" width="120" height="60" as="geometry" />
        </mxCell>
        <mxCell id="wXqkYa9CVzPAk8inAlXh-18" value="" style="edgeStyle=entityRelationEdgeStyle;fontSize=12;html=1;endArrow=ERoneToMany;rounded=0;entryX=0;entryY=0.5;entryDx=0;entryDy=0;exitX=1;exitY=0.5;exitDx=0;exitDy=0;" edge="1" parent="1" source="wXqkYa9CVzPAk8inAlXh-12" target="wXqkYa9CVzPAk8inAlXh-2">
          <mxGeometry width="100" height="100" relative="1" as="geometry">
            <mxPoint x="370" y="300" as="sourcePoint" />
            <mxPoint x="470" y="200" as="targetPoint" />
          </mxGeometry>
        </mxCell>
        <mxCell id="wXqkYa9CVzPAk8inAlXh-19" value="" style="edgeStyle=entityRelationEdgeStyle;fontSize=12;html=1;endArrow=ERmandOne;rounded=0;entryX=1;entryY=0.5;entryDx=0;entryDy=0;exitX=0;exitY=0.5;exitDx=0;exitDy=0;" edge="1" parent="1" source="wXqkYa9CVzPAk8inAlXh-12" target="wXqkYa9CVzPAk8inAlXh-1">
          <mxGeometry width="100" height="100" relative="1" as="geometry">
            <mxPoint x="140" y="150" as="sourcePoint" />
            <mxPoint x="240" y="50" as="targetPoint" />
          </mxGeometry>
        </mxCell>
        <mxCell id="wXqkYa9CVzPAk8inAlXh-20" value="" style="edgeStyle=entityRelationEdgeStyle;fontSize=12;html=1;endArrow=ERmandOne;rounded=0;exitX=1;exitY=0.5;exitDx=0;exitDy=0;entryX=0;entryY=0.5;entryDx=0;entryDy=0;" edge="1" parent="1" source="wXqkYa9CVzPAk8inAlXh-13" target="wXqkYa9CVzPAk8inAlXh-3">
          <mxGeometry width="100" height="100" relative="1" as="geometry">
            <mxPoint x="580" y="110" as="sourcePoint" />
            <mxPoint x="680" y="10" as="targetPoint" />
          </mxGeometry>
        </mxCell>
        <mxCell id="wXqkYa9CVzPAk8inAlXh-28" style="edgeStyle=orthogonalEdgeStyle;rounded=0;orthogonalLoop=1;jettySize=auto;html=1;" edge="1" parent="1" source="wXqkYa9CVzPAk8inAlXh-7">
          <mxGeometry relative="1" as="geometry">
            <mxPoint x="120" y="340" as="targetPoint" />
          </mxGeometry>
        </mxCell>
        <mxCell id="wXqkYa9CVzPAk8inAlXh-41" style="edgeStyle=orthogonalEdgeStyle;rounded=0;orthogonalLoop=1;jettySize=auto;html=1;entryX=1;entryY=0.5;entryDx=0;entryDy=0;endArrow=ERmandOne;endFill=0;" edge="1" parent="1" source="wXqkYa9CVzPAk8inAlXh-38" target="wXqkYa9CVzPAk8inAlXh-3">
          <mxGeometry relative="1" as="geometry" />
        </mxCell>
        <mxCell id="wXqkYa9CVzPAk8inAlXh-43" style="edgeStyle=orthogonalEdgeStyle;rounded=0;orthogonalLoop=1;jettySize=auto;html=1;endArrow=ERoneToMany;endFill=0;" edge="1" parent="1" source="wXqkYa9CVzPAk8inAlXh-38">
          <mxGeometry relative="1" as="geometry">
            <mxPoint x="730" y="360" as="targetPoint" />
            <Array as="points">
              <mxPoint x="1040" y="380" />
              <mxPoint x="730" y="380" />
              <mxPoint x="730" y="360" />
            </Array>
          </mxGeometry>
        </mxCell>
        <mxCell id="wXqkYa9CVzPAk8inAlXh-38" value="Thuộc" style="shape=rhombus;perimeter=rhombusPerimeter;whiteSpace=wrap;html=1;align=center;" vertex="1" parent="1">
          <mxGeometry x="980" y="70" width="120" height="60" as="geometry" />
        </mxCell>
        <mxCell id="wXqkYa9CVzPAk8inAlXh-45" style="edgeStyle=orthogonalEdgeStyle;rounded=0;orthogonalLoop=1;jettySize=auto;html=1;entryX=0.5;entryY=1;entryDx=0;entryDy=0;endArrow=ERoneToMany;endFill=0;" edge="1" parent="1" source="wXqkYa9CVzPAk8inAlXh-44" target="wXqkYa9CVzPAk8inAlXh-6">
          <mxGeometry relative="1" as="geometry" />
        </mxCell>
        <mxCell id="wXqkYa9CVzPAk8inAlXh-46" style="edgeStyle=orthogonalEdgeStyle;rounded=0;orthogonalLoop=1;jettySize=auto;html=1;entryX=0.5;entryY=0;entryDx=0;entryDy=0;endArrow=ERoneToMany;endFill=0;" edge="1" parent="1" source="wXqkYa9CVzPAk8inAlXh-44" target="wXqkYa9CVzPAk8inAlXh-5">
          <mxGeometry relative="1" as="geometry">
            <Array as="points">
              <mxPoint x="-100" y="440" />
              <mxPoint x="-100" y="160" />
              <mxPoint x="380" y="160" />
            </Array>
          </mxGeometry>
        </mxCell>
        <mxCell id="wXqkYa9CVzPAk8inAlXh-48" style="edgeStyle=orthogonalEdgeStyle;rounded=0;orthogonalLoop=1;jettySize=auto;html=1;entryX=0;entryY=0.5;entryDx=0;entryDy=0;endArrow=ERoneToMany;endFill=0;" edge="1" parent="1" source="wXqkYa9CVzPAk8inAlXh-44" target="wXqkYa9CVzPAk8inAlXh-47">
          <mxGeometry relative="1" as="geometry" />
        </mxCell>
        <mxCell id="wXqkYa9CVzPAk8inAlXh-44" value="DETAILMOVIE" style="shape=associativeEntity;whiteSpace=wrap;html=1;align=center;" vertex="1" parent="1">
          <mxGeometry x="300" y="410" width="140" height="60" as="geometry" />
        </mxCell>
        <mxCell id="wXqkYa9CVzPAk8inAlXh-47" value="TIMESHOW" style="whiteSpace=wrap;html=1;align=center;" vertex="1" parent="1">
          <mxGeometry x="520" y="420" width="100" height="40" as="geometry" />
        </mxCell>
        <mxCell id="wXqkYa9CVzPAk8inAlXh-51" style="edgeStyle=orthogonalEdgeStyle;rounded=0;orthogonalLoop=1;jettySize=auto;html=1;entryX=0.5;entryY=1;entryDx=0;entryDy=0;endArrow=ERoneToMany;endFill=0;" edge="1" parent="1" source="wXqkYa9CVzPAk8inAlXh-50" target="wXqkYa9CVzPAk8inAlXh-9">
          <mxGeometry relative="1" as="geometry" />
        </mxCell>
        <mxCell id="wXqkYa9CVzPAk8inAlXh-52" style="edgeStyle=orthogonalEdgeStyle;rounded=0;orthogonalLoop=1;jettySize=auto;html=1;entryX=0.5;entryY=1;entryDx=0;entryDy=0;endArrow=ERmandOne;endFill=0;" edge="1" parent="1" source="wXqkYa9CVzPAk8inAlXh-50" target="wXqkYa9CVzPAk8inAlXh-47">
          <mxGeometry relative="1" as="geometry" />
        </mxCell>
        <mxCell id="wXqkYa9CVzPAk8inAlXh-50" value="Có" style="shape=rhombus;perimeter=rhombusPerimeter;whiteSpace=wrap;html=1;align=center;" vertex="1" parent="1">
          <mxGeometry x="510" y="490" width="120" height="60" as="geometry" />
        </mxCell>
      </root>
    </mxGraphModel>
  </diagram>
</mxfile>
